<?xml version="1.0" encoding="UTF-8" standalone="no"?>
<!-- Created with Inkscape (http://www.inkscape.org/) -->

<svg
   xmlns:dc="http://purl.org/dc/elements/1.1/"
   xmlns:cc="http://creativecommons.org/ns#"
   xmlns:rdf="http://www.w3.org/1999/02/22-rdf-syntax-ns#"
   xmlns:svg="http://www.w3.org/2000/svg"
   xmlns="http://www.w3.org/2000/svg"
   xmlns:sodipodi="http://sodipodi.sourceforge.net/DTD/sodipodi-0.dtd"
   xmlns:inkscape="http://www.inkscape.org/namespaces/inkscape"
   width="30"
   height="30"
   id="svg2"
   version="1.1"
   inkscape:version="0.48.4 r9939"
   sodipodi:docname="concept-red-checkmark.svg">
  <defs
     id="defs4" />
  <sodipodi:namedview
     id="base"
     pagecolor="#ffffff"
     bordercolor="#666666"
     borderopacity="1.0"
     inkscape:pageopacity="0.0"
     inkscape:pageshadow="2"
     inkscape:zoom="15.839192"
     inkscape:cx="-0.36852875"
     inkscape:cy="9.6730432"
     inkscape:document-units="px"
     inkscape:current-layer="layer1"
     showgrid="false"
     fit-margin-top="0"
     fit-margin-left="0"
     fit-margin-right="0"
     fit-margin-bottom="0"
     inkscape:window-width="1920"
     inkscape:window-height="1008"
     inkscape:window-x="0"
     inkscape:window-y="0"
     inkscape:window-maximized="1" />
  <metadata
     id="metadata7">
    <rdf:RDF>
      <cc:Work
         rdf:about="">
        <dc:format>image/svg+xml</dc:format>
        <dc:type
           rdf:resource="http://purl.org/dc/dcmitype/StillImage" />
        <dc:title />
      </cc:Work>
    </rdf:RDF>
  </metadata>
  <g
     inkscape:label="Ebene 1"
     inkscape:groupmode="layer"
     id="layer1"
     transform="translate(2.1019867e-6,-1022.3622)">
    <path
       sodipodi:type="arc"
       style="fill:#f5f5f5;fill-opacity:1;stroke:#e00000;stroke-width:38.6037686;stroke-miterlimit:4;stroke-opacity:1;stroke-dasharray:none;stroke-dashoffset:0"
       id="path2987-7"
       sodipodi:cx="354.28571"
       sodipodi:cy="595.2193"
       sodipodi:rx="171.42857"
       sodipodi:ry="171.42857"
       d="m 525.71428,595.2193 a 171.42857,171.42857 0 1 1 -342.85715,0 171.42857,171.42857 0 1 1 342.85715,0 z"
       transform="matrix(0.07771262,0,0,0.07771262,-12.532475,991.10614)" />
    <path
       inkscape:connector-curvature="0"
       style="fill:#000000"
       d="m 12.36456,1044.7528 c -0.329661,0 -1.752356,-2.1319 -3.1615528,-4.7282 l -2.5621708,-4.7205 0.6641282,-0.6641 c 0.3652639,-0.3653 1.3470292,-0.6642 2.1816942,-0.6642 l 1.5175662,0 0.762882,2.4037 0.762883,2.4036 6.071114,-6.6426 c 3.339114,-3.6537 7.196274,-7.2451 8.571463,-7.9809 l 2.500338,-1.3382 -5.046133,5.7327 c -2.775383,3.153 -6.534905,8.0893 -8.354487,10.9695 -1.819582,2.8803 -3.578065,5.2335 -3.907725,5.2292 z"
       id="path2223" />
  </g>
</svg>
